<svg width="40" height="40" viewBox="0 0 40 40" fill="none" xmlns="http://www.w3.org/2000/svg">
<g clip-path="url(#clip0_4_351)">
<g clip-path="url(#clip1_4_351)">
<path d="M29.1905 32.1277C30.7893 30.2467 31.6664 27.8583 31.6664 25.39V0L26.6636 2.27364C24.1281 3.42619 22.4996 5.95483 22.4996 8.74014V15.0001H17.5001V8.74014C17.5001 5.95483 15.8716 3.42619 13.3362 2.27364L8.33331 0V25.39C8.33331 27.8583 9.21047 30.2467 10.8093 32.1277L17.5001 40V21.6672H22.4996V40L29.1905 32.1277Z" fill="white"/>
<path fill-rule="evenodd" clip-rule="evenodd" d="M5.00032 4.1664V24.902C5.00032 27.4842 5.93272 29.9517 7.81369 31.7204L15.8645 39.2876L5.51029 32.5925C2.03565 29.9202 0 25.786 0 21.4028V1.66667L5.00032 4.1664ZM35.0011 4.16641L40.0014 1.66667V21.4028C40.0014 25.786 37.9658 29.9211 34.4911 32.5933L24.1369 39.2885L32.1877 31.7213C34.0695 29.9525 35.0011 27.4842 35.0011 24.902V4.16641Z" fill="#FFC72C"/>
</g>
</g>
<defs>
<clipPath id="clip0_4_351">
<rect width="40" height="40" fill="white"/>
</clipPath>
<clipPath id="clip1_4_351">
<rect width="40" height="40" fill="white"/>
</clipPath>
</defs>
</svg>
