<svg width="145" height="120" viewBox="0 0 145 120" fill="none" xmlns="http://www.w3.org/2000/svg">
<g clip-path="url(#clip0_4_217)">
<g clip-path="url(#clip1_4_217)">
<path d="M14.9179 85.1166H3.76252V76.2382H0V98.0208H3.76252V88.582H14.9179V98.0208H18.6804V76.2382H14.9179V85.1166Z" fill="white"/>
<path d="M32.8492 75.8426C26.6078 75.8426 22.2401 80.4959 22.2401 87.1302C22.2401 93.7633 26.6078 98.4172 32.8492 98.4172C39.0905 98.4172 43.4582 93.7633 43.4582 87.1302C43.4582 80.4959 39.0905 75.8426 32.8492 75.8426ZM32.8492 94.9518C28.8192 94.9518 26.1015 91.7829 26.1015 87.1302C26.1015 82.4763 28.8192 79.308 32.8492 79.308C36.8791 79.308 39.5968 82.4763 39.5968 87.1302C39.5968 91.7829 36.8791 94.9518 32.8492 94.9518Z" fill="white"/>
<path d="M46.9692 98.0209H50.7318V88.8793H61.2595V85.4794H50.7318V79.6382H62.844V76.2383H46.9692V98.0209Z" fill="white"/>
<path d="M75.6036 85.5785L72.4353 84.9182C69.6957 84.3573 68.7716 83.4993 68.7716 82.0798C68.7716 80.2322 70.356 79.2086 73.3267 79.2086C75.9007 79.2086 78.3432 79.9678 80.0592 81.3873V77.5259C78.5408 76.4696 76.0656 75.8426 73.3267 75.8426C68.0458 75.8426 64.9436 78.1863 64.9436 82.3441C64.9436 85.3808 66.5935 87.3606 70.5871 88.252L73.6565 88.9451C76.3961 89.5721 77.3857 90.4634 77.3857 91.9818C77.3857 93.9943 75.7358 95.0506 72.6002 95.0506C69.6957 95.0506 66.8907 94.1265 64.9763 92.4432V96.3707C66.693 97.658 69.4981 98.4172 72.6336 98.4172C78.1449 98.4172 81.2143 96.1063 81.2143 91.7174C81.2143 88.483 79.531 86.4032 75.6036 85.5785Z" fill="white"/>
<path d="M82.6656 79.6712H89.7614V98.0211H93.5239V79.6712H100.587V76.2385H82.6656V79.6712Z" fill="white"/>
<path d="M120.486 82.8726C120.486 78.5158 117.78 76.2383 112.598 76.2383H103.39V98.0209H107.153V89.5063H111.476L117.45 98.0209H122.037L115.767 89.1425C118.869 88.3839 120.486 86.2719 120.486 82.8726ZM107.153 86.1725V79.6382H112.532C115.403 79.6382 116.691 80.5951 116.691 82.9054C116.691 85.2156 115.403 86.1725 112.532 86.1725H107.153Z" fill="white"/>
<path d="M141.079 98.0211H144.907L134.264 75.8431L123.62 98.0211H127.449L129.679 93.2683H138.848L141.079 98.0211ZM131.244 89.9351L134.264 83.5021L137.283 89.9351H131.244Z" fill="white"/>
<path d="M0.0635376 115.706V108.986H2.50552V115.525C2.50552 117.017 3.14473 117.722 4.58699 117.722C6.01285 117.722 6.61924 117.033 6.61924 115.525V108.986H8.963V115.706C8.963 118.623 7.55354 120 4.52137 120C1.4894 120 0.0635376 118.623 0.0635376 115.706Z" fill="white"/>
<path d="M17.0921 108.986H19.5507L24.2216 115.87V108.986H26.5653V119.803H24.238L19.4359 112.723V119.803H17.0921V108.986Z" fill="white"/>
<path d="M34.972 108.986H37.4142V119.803H34.972V108.986Z" fill="white"/>
<path d="M44.5112 108.986H47.1171L49.6247 116.197L52.1159 108.986H54.6071L50.7228 119.803H48.3955L44.5112 108.986Z" fill="white"/>
<path d="M61.7027 108.986H69.9139V111.166H64.1449V113.215H69.1273V115.378H64.1449V117.623H70.0942V119.803H61.7027V108.986Z" fill="white"/>
<path d="M77.9451 108.986H82.5341C85.2058 108.986 86.5989 110.183 86.5989 112.444C86.5989 114.067 85.8776 115.132 84.4846 115.624L87.3365 119.803H84.3863L81.8131 115.903H80.3873V119.803H77.9451V108.986ZM82.4359 113.788C83.6159 113.788 84.1241 113.428 84.1241 112.477C84.1241 111.526 83.6159 111.166 82.4359 111.166H80.3873V113.788H82.4359Z" fill="white"/>
<path d="M94.2023 119.082V116.656C95.1856 117.443 96.5461 117.869 97.9391 117.869C99.2011 117.869 99.8403 117.525 99.8403 116.755C99.8403 116.197 99.4962 115.853 98.2998 115.575L96.9722 115.263C94.989 114.804 94.1205 113.854 94.1205 112.182C94.1205 109.937 95.6938 108.79 98.3981 108.79C99.7421 108.79 100.955 109.068 101.742 109.56V111.953C100.824 111.281 99.6601 110.92 98.4145 110.92C97.2017 110.92 96.5953 111.264 96.5953 111.985C96.5953 112.543 96.9722 112.821 98.1686 113.083L99.5454 113.395C101.496 113.837 102.315 114.788 102.315 116.525C102.315 118.885 100.791 120 97.9883 120C96.4312 120 95.0546 119.656 94.2023 119.082Z" fill="white"/>
<path d="M110.052 108.986H112.494V119.803H110.052V108.986Z" fill="white"/>
<path d="M123.065 111.199H119.787V108.986H128.801V111.199H125.507V119.803H123.065V111.199Z" fill="white"/>
<path d="M138.586 115.264L134.75 108.986H137.602L139.88 112.805L142.175 108.986H144.863L141.028 115.247V119.803H138.586V115.264Z" fill="white"/>
<path d="M105.127 2.72293L96.9587 6.80714V40.6821C96.9587 44.9007 95.4359 48.932 92.3621 51.8214L79.2101 64.1838L96.1257 53.2461C101.801 48.8804 105.127 42.1261 105.127 34.9657L105.127 2.72293Z" fill="#FFC72C"/>
<path d="M87.4683 52.486C90.0799 49.4132 91.5136 45.5119 91.5136 41.4792V0L83.3403 3.71519C79.1978 5.59812 76.5382 9.72848 76.5382 14.2788V24.5053H68.3698V14.2788C68.3698 9.72848 65.7102 5.59812 61.5678 3.71519L53.3943 0V41.4792C53.3943 45.5119 54.828 49.4132 57.4396 52.486L68.3698 65.3473V35.3965H76.5382V65.3473L87.4683 52.486Z" fill="white"/>
<path d="M47.9488 40.6821V6.80714L39.7804 2.72293L39.7802 34.9657C39.7802 42.1261 43.1061 48.8804 48.7818 53.2461L65.6973 64.1838L52.5455 51.8214C49.4716 48.932 47.9488 44.9007 47.9488 40.6821Z" fill="#FFC72C"/>
</g>
</g>
<defs>
<clipPath id="clip0_4_217">
<rect width="145" height="120" fill="white"/>
</clipPath>
<clipPath id="clip1_4_217">
<rect width="144.907" height="120" fill="white"/>
</clipPath>
</defs>
</svg>
