<svg width="250" height="64" viewBox="0 0 250 64" fill="none" xmlns="http://www.w3.org/2000/svg">
<g clip-path="url(#clip0_4_319)">
<g clip-path="url(#clip1_4_319)">
<path d="M64.0011 2.66673L56.0011 6.66674V39.8432C56.0011 43.9749 54.5096 47.923 51.4992 50.7529L38.6185 62.8604L55.1852 52.1482C60.7438 47.8725 64.0012 41.2575 64.0012 34.2447L64.0011 2.66673Z" fill="#FFC72C"/>
<path d="M46.7051 51.4038C49.2629 48.3944 50.667 44.5735 50.667 40.6239V0L42.6622 3.63859C38.6051 5.4827 36.0003 9.52789 36.0003 13.9844V24H28.0003V13.9844C28.0003 9.52789 25.3956 5.4827 21.3386 3.63859L13.3337 0V40.6239C13.3337 44.5735 14.7378 48.3944 17.2956 51.4038L28.0003 64V34.6667H36.0003V64L46.7051 51.4038Z" fill="white"/>
<path d="M8.0002 39.8432V6.66669L0.000195944 2.66669L0 34.2447C0 41.2574 3.25739 47.8724 8.81609 52.1482L25.3828 62.8604L12.5021 50.7528C9.49159 47.923 8.0002 43.9748 8.0002 39.8432Z" fill="#FFC72C"/>
<path d="M106.259 17.7702H93.9839V8.00023H89.8435V31.9702H93.9839V21.5836H106.259V31.9702H110.4V8.00023H106.259V17.7702Z" fill="white"/>
<path d="M125.992 7.56497C119.124 7.56497 114.317 12.6855 114.317 19.986C114.317 27.2852 119.124 32.4064 125.992 32.4064C132.86 32.4064 137.666 27.2852 137.666 19.986C137.666 12.6855 132.86 7.56497 125.992 7.56497ZM125.992 28.593C121.557 28.593 118.566 25.1059 118.566 19.986C118.566 14.8648 121.557 11.3784 125.992 11.3784C130.426 11.3784 133.417 14.8648 133.417 19.986C133.417 25.1059 130.426 28.593 125.992 28.593Z" fill="white"/>
<path d="M141.529 31.9702H145.67V21.9106H157.255V18.1693H145.67V11.7415H158.998V8.00021H141.529V31.9702Z" fill="white"/>
<path d="M173.039 18.2785L169.553 17.5519C166.538 16.9346 165.521 15.9905 165.521 14.4284C165.521 12.3953 167.265 11.2689 170.534 11.2689C173.366 11.2689 176.054 12.1043 177.942 13.6664V9.41729C176.271 8.25492 173.548 7.56497 170.534 7.56497C164.722 7.56497 161.309 10.1439 161.309 14.7193C161.309 18.061 163.124 20.2396 167.519 21.2204L170.897 21.9831C173.911 22.6731 175 23.6539 175 25.3248C175 27.5394 173.185 28.7018 169.734 28.7018C166.538 28.7018 163.451 27.6849 161.345 25.8325V30.1544C163.234 31.571 166.321 32.4064 169.771 32.4064C175.836 32.4064 179.213 29.8635 179.213 25.0338C179.213 21.4747 177.361 19.186 173.039 18.2785Z" fill="white"/>
<path d="M180.809 11.7781H188.618V31.9707H192.758V11.7781H200.53V8.00072H180.809V11.7781Z" fill="white"/>
<path d="M222.427 15.3007C222.427 10.5064 219.449 8.00021 213.747 8.00021H203.614V31.9702H207.754V22.6005H212.512L219.086 31.9702H224.133L217.233 22.2002C220.647 21.3654 222.427 19.0414 222.427 15.3007ZM207.754 18.9319V11.7415H213.674C216.834 11.7415 218.25 12.7945 218.25 15.3367C218.25 17.879 216.834 18.9319 213.674 18.9319H207.754Z" fill="white"/>
<path d="M245.087 31.9705H249.3L237.588 7.56549L225.876 31.9705H230.089L232.544 26.7405H242.633L245.087 31.9705ZM234.265 23.0726L237.588 15.9936L240.911 23.0726H234.265Z" fill="white"/>
<path d="M89.9133 51.4315V44.037H92.6005V51.2329C92.6005 52.8742 93.3039 53.6498 94.891 53.6498C96.46 53.6498 97.1273 52.8922 97.1273 51.2329V44.037H99.7064V51.4315C99.7064 54.6418 98.1554 56.1567 94.8187 56.1567C91.4823 56.1567 89.9133 54.6418 89.9133 51.4315Z" fill="white"/>
<path d="M108.652 44.037H111.358L116.498 51.6118V44.037H119.077V55.9403H116.516L111.231 48.149V55.9403H108.652V44.037Z" fill="white"/>
<path d="M128.327 44.037H131.014V55.9403H128.327V44.037Z" fill="white"/>
<path d="M138.824 44.037H141.691L144.451 51.9724L147.192 44.037H149.934L145.659 55.9403H143.098L138.824 44.037Z" fill="white"/>
<path d="M157.743 44.037H166.779V46.4356H160.43V48.6899H165.913V51.0707H160.43V53.5415H166.977V55.9403H157.743V44.037Z" fill="white"/>
<path d="M175.615 44.037H180.665C183.605 44.037 185.138 45.3535 185.138 47.8423C185.138 49.6278 184.344 50.8001 182.812 51.3413L185.95 55.9403H182.703L179.872 51.6479H178.303V55.9403H175.615V44.037ZM180.557 49.3213C181.856 49.3213 182.415 48.9244 182.415 47.8784C182.415 46.8323 181.856 46.4356 180.557 46.4356H178.303V49.3213H180.557Z" fill="white"/>
<path d="M193.506 55.1464V52.4773C194.588 53.3429 196.085 53.8119 197.618 53.8119C199.007 53.8119 199.71 53.4332 199.71 52.5856C199.71 51.9722 199.332 51.5936 198.015 51.2869L196.554 50.9443C194.372 50.4393 193.416 49.3931 193.416 47.5535C193.416 45.0827 195.147 43.8204 198.123 43.8204C199.602 43.8204 200.937 44.1268 201.802 44.668V47.301C200.793 46.5617 199.512 46.1648 198.141 46.1648C196.807 46.1648 196.139 46.5437 196.139 47.3371C196.139 47.9505 196.554 48.2569 197.871 48.5455L199.386 48.8883C201.532 49.3751 202.434 50.4213 202.434 52.3331C202.434 54.93 200.757 56.1565 197.672 56.1565C195.959 56.1565 194.444 55.7778 193.506 55.1464Z" fill="white"/>
<path d="M210.947 44.037H213.634V55.9403H210.947V44.037Z" fill="white"/>
<path d="M225.266 46.4717H221.659V44.037H231.578V46.4717H227.953V55.9403H225.266V46.4717Z" fill="white"/>
<path d="M242.344 50.9445L238.124 44.037H241.262L243.769 48.2391L246.294 44.037H249.252L245.031 50.9265V55.9403H242.344V50.9445Z" fill="white"/>
</g>
</g>
<defs>
<clipPath id="clip0_4_319">
<rect width="250" height="64" fill="white"/>
</clipPath>
<clipPath id="clip1_4_319">
<rect width="249.3" height="64" fill="white"/>
</clipPath>
</defs>
</svg>
